<svg width="28" height="23" viewBox="0 0 28 23" fill="none" xmlns="http://www.w3.org/2000/svg">
<path d="M13.8007 0C15.4139 0 16.9622 0.276632 18.4011 0.785311C20.1146 1.39127 21.6731 2.32554 23.0005 3.51414C23.3825 3.85461 23.7453 4.21738 24.0858 4.59939C25.2744 5.92682 26.2096 7.48529 26.8156 9.1998C27.3243 10.6387 27.6009 12.187 27.6009 13.8002V20.9732C27.6009 22.0926 26.6935 23 25.5741 23H20.4278C19.3084 23 18.401 22.0926 18.401 20.9732V13.5054C18.401 11.1274 16.4733 9.1997 14.0953 9.1997H11.2269C10.1075 9.1997 9.2001 10.1071 9.2001 11.2265V16.3738C9.2001 17.4932 8.29269 18.4006 7.17329 18.4006H2.02681C0.907415 18.4006 0 17.4932 0 16.3738V11.2274C0 10.1081 0.907313 9.20081 2.02651 9.20061L7.17146 9.2C8.29046 9.1999 9.19767 8.29289 9.19797 7.1739L9.1996 2.0261C9.2 0.90701 10.1073 0 11.2264 0L13.8007 0Z" fill="white" style="mix-blend-mode:difference"/>
</svg>
